<?xml version="1.0" encoding="utf-8"?>
<!-- Generator: Adobe Illustrator 24.0.2, SVG Export Plug-In . SVG Version: 6.00 Build 0)  -->
<svg version="1.1" id="Capa_3" xmlns="http://www.w3.org/2000/svg" xmlns:xlink="http://www.w3.org/1999/xlink" x="0px" y="0px"
	 viewBox="0 0 162.8 32.87" style="enable-background:new 0 0 162.8 32.87;" xml:space="preserve">
<style type="text/css">
	.st0{fill:#E84855;}
	.st1{fill:#F39400;}
	.st2{fill:#7AB53C;}
	.st3{fill:#02A8D2;}
	.st4{fill:#93127D;}
</style>
<path class="st0" d="M11.81,15.39c0,0,0.27-1.68-1.07-1.83C9.4,13.41,9.4,12.49,9.4,12.49l2.43-1.53l4.11-1.68l4.89,0l1.99,0
	l1.38-2.75l4.89-0.92v-2.6l5.04,1.68l1.68,3.36l1.83,0.15l1.07,1.83l1.68,0.92l0.76,4.43l-3.97-0.92l-3.97,0.92H30l-4.72-1.68
	L11.81,15.39z"/>
<path class="st1" d="M64.09,18.45l1.53-4.59l-2.75,1.53l-3.82-1.53c0,0-1.07-1.68-1.68-1.68s-4.28,0.76-4.28,0.76l-3.06-2.6
	L45.74,7.9l-5.66,0l1.07,4.13l1.22,3.36l8.1,3.06l6.73,0L64.09,18.45z"/>
<path class="st2" d="M80.21,21.2c0,0-8.79-2.9-9.25-2.75c-0.46,0.15-5.35-0.01-5.35-0.01l1.07-4.58l2.9-1.99l4.13,0l1.99,2.45
	l3.82-0.46l2.9,1.53L80.21,21.2z"/>
<polygon class="st3" points="82.43,21.2 83.65,16.54 89,15.39 96.5,18.3 103.53,18.3 106.58,18.3 110.1,16.54 110.1,21.66 
	105.51,21.2 101.39,21.2 100.62,24.26 96.27,24.26 94.51,21.97 87.63,23.19 "/>
<polygon class="st3" points="102.92,24.26 102.92,23.49 109.03,23.49 109.03,25.48 102.92,25.48 "/>
<path class="st4" d="M111.17,21.81v-3.36l1.68-2.45l2.22,1.61l1.38-2.22l8.41,2.45l5.5,1.99l-1.99,2.98l-2.22-0.99l-1.68,2.68
	c0,0-4.05,1.22-4.13,1.45c-0.08,0.23-3.13-0.46-3.13-0.46l2.29-2.68l-4.36-2.12L111.17,21.81z"/>
<path class="st4" d="M130.36,23.19l1.61-2.5h2.68l3.13-2.24l3.36,0c0,0,0.46-6.34,0.46-6.57c0-0.23,1.76-3.97,1.76-3.97l8.87,1.61
	l-0.46,4.2l-4.2,3.44c0,0,0.08,3.67-0.23,4.05c-0.31,0.38-5.2,0.99-5.5,1.3c-0.31,0.31-2.9,2.98-2.9,2.98s-4.74-0.69-5.2-0.61
	c-0.46,0.08-4.2,0.15-4.2,0.15L130.36,23.19z"/>
</svg>
