<?xml version="1.0" encoding="utf-8"?>
<!-- Generator: Adobe Illustrator 24.0.2, SVG Export Plug-In . SVG Version: 6.00 Build 0)  -->
<svg version="1.1" id="Capa_1" xmlns="http://www.w3.org/2000/svg" xmlns:xlink="http://www.w3.org/1999/xlink" x="0px" y="0px"
	 viewBox="0 0 162.8 100.43" style="enable-background:new 0 0 162.8 100.43;" xml:space="preserve">
<style type="text/css">
	.st0{fill:#F39400;}
	.st1{fill:#3F3444;}
</style>
<g>
	<path class="st0" d="M95.03,62.44c39.23,35.17-28.25,57.26-17.4,5.69C66.79,119.7,13.92,72.3,64,55.91
		C13.92,72.3,28.54,2.82,67.77,37.99C28.54,2.82,96.02-19.26,85.17,32.3c10.85-51.56,63.71-4.17,13.63,12.22
		C148.88,28.13,134.27,97.61,95.03,62.44z"/>
</g>
<g>
	<path class="st1" d="M23.21,31.67c-1.27-0.42-2.25-0.61-3.38-0.61c-2.44,0-4.03,1.17-4.03,5.91v1.83h7.17
		c0.94,0,1.64,0.7,1.64,1.64v1.22c0,0.94-0.7,1.64-1.64,1.64h-7.22v18.23c0,0.94-0.7,1.64-1.64,1.64h-1.64
		c-0.98,0-1.64-0.7-1.64-1.64V43.29H6.8c-0.94,0-1.64-0.66-1.64-1.64v-1.22c0-0.94,0.7-1.64,1.64-1.64h4.03v-1.83
		c0-7.83,4.41-10.5,9-10.5c1.69,0,3.52,0.38,5.06,0.94c0.98,0.33,1.31,1.27,0.94,2.16l-0.52,1.22
		C24.94,31.67,24.05,32.04,23.21,31.67z"/>
	<path class="st1" d="M51.52,63.17c-1.78,0.42-3.28,0.47-4.22,0.47c-5.53,0-8.16-2.63-8.16-7.97V31.57h-4.78
		c-0.94,0-1.64-0.7-1.64-1.64v-1.22c0-0.98,0.7-1.64,1.64-1.64h8.06c0.94,0,1.64,0.66,1.64,1.64v26.95c0,2.48,0.75,3.38,3.23,3.42
		c0.75,0,1.83-0.05,2.95-0.33c0.89-0.14,1.69,0.23,2.02,1.08l0.05,0.05l0.38,1.22l-0.05-0.05C53.02,61.95,52.55,62.93,51.52,63.17z"
		/>
	<path class="st1" d="M79.46,50.98c0,7.88-3.7,12.75-9.8,12.75c-6.19,0-10.12-4.97-10.12-12.75s3.94-12.75,10.12-12.75
		C75.76,38.23,79.46,43.1,79.46,50.98z M69.52,59.18c3.09,0,5.02-3.09,5.02-8.2s-1.92-8.2-5.02-8.2s-5.06,3.09-5.06,8.2
		S66.43,59.18,69.52,59.18z"/>
	<path class="st1" d="M87.99,38.89c3.42-0.52,6.47-0.56,8.02-0.56c7.41,0,10.41,2.25,10.41,8.06c0,0.98-0.66,1.64-1.64,1.64h-1.64
		c-0.94,0-1.64-0.7-1.64-1.64c0-2.63-1.41-3.56-5.48-3.56c-1.03,0-2.67,0.05-4.59,0.14v18.56c0,0.94-0.66,1.64-1.64,1.64h-1.64
		c-0.94,0-1.64-0.7-1.64-1.64V40.62C86.49,39.73,87.1,39.07,87.99,38.89z"/>
	<path class="st1" d="M113.44,60.26c0-0.94,0.7-1.64,1.64-1.64h5.86V43.29h-4.31c-0.94,0-1.64-0.7-1.64-1.64v-1.22
		c0-0.98,0.7-1.64,1.64-1.64h7.59c0.94,0,1.64,0.66,1.64,1.64v18.19h5.86c0.94,0,1.64,0.7,1.64,1.64v1.27c0,0.94-0.7,1.64-1.64,1.64
		h-16.64c-0.94,0-1.64-0.7-1.64-1.64V60.26z M125.87,28.25v3.09c0,0.94-0.66,1.64-1.64,1.64h-3.05c-0.94,0-1.64-0.7-1.64-1.64v-3.09
		c0-0.94,0.7-1.64,1.64-1.64h3.05C125.16,26.6,125.87,27.26,125.87,28.25z"/>
	<path class="st1" d="M155.49,43.25c-1.97-0.33-3.7-0.42-4.59-0.42c-3.05,0.09-4.59,1.08-4.59,2.63c0,1.41,1.5,2.44,4.36,2.77
		c5.48,0.66,8.67,3.42,8.67,7.64c0,4.97-3.8,7.78-10.31,7.78c-1.5,0-3.75-0.09-6.42-0.52c-0.98-0.19-1.55-1.03-1.31-1.97l0.28-1.22
		c0.19-0.94,0.98-1.41,1.92-1.31c2.39,0.42,4.45,0.47,5.53,0.47c3.56,0,5.39-1.13,5.39-3c0.05-1.78-1.45-3.05-4.31-3.33
		c-5.48-0.61-8.72-3.23-8.72-7.13c0-4.69,3.52-7.31,9.52-7.31c1.22,0,3.33,0.09,5.63,0.52c0.94,0.19,1.5,1.03,1.27,2.02l-0.33,1.22
		C157.23,42.92,156.43,43.43,155.49,43.25z"/>
</g>
</svg>
